<?xml version="1.0" encoding="UTF-8" standalone="no"?>
<svg
   xmlns:dc="http://purl.org/dc/elements/1.1/"
   xmlns:cc="http://creativecommons.org/ns#"
   xmlns:rdf="http://www.w3.org/1999/02/22-rdf-syntax-ns#"
   xmlns:svg="http://www.w3.org/2000/svg"
   xmlns="http://www.w3.org/2000/svg"
   xmlns:sodipodi="http://sodipodi.sourceforge.net/DTD/sodipodi-0.dtd"
   xmlns:inkscape="http://www.inkscape.org/namespaces/inkscape"
   width="208.41411"
   height="100.42612"
   version="1.1"
   id="svg60"
   sodipodi:docname="no-ie-and-old-edge.svg"
   inkscape:version="0.92.5 (2060ec1f9f, 2020-04-08)">
  <metadata
     id="metadata66">
    <rdf:RDF>
      <cc:Work
         rdf:about="">
        <dc:format>image/svg+xml</dc:format>
        <dc:type
           rdf:resource="http://purl.org/dc/dcmitype/StillImage" />
        <dc:title></dc:title>
      </cc:Work>
    </rdf:RDF>
  </metadata>
  <defs
     id="defs64" />
  <sodipodi:namedview
     pagecolor="#ffffff"
     bordercolor="#666666"
     borderopacity="1"
     objecttolerance="10"
     gridtolerance="10"
     guidetolerance="10"
     inkscape:pageopacity="0"
     inkscape:pageshadow="2"
     inkscape:window-width="1366"
     inkscape:window-height="680"
     id="namedview62"
     showgrid="false"
     inkscape:zoom="2.1872146"
     inkscape:cx="66.88764"
     inkscape:cy="-7.8957506"
     inkscape:window-x="0"
     inkscape:window-y="28"
     inkscape:window-maximized="1"
     inkscape:current-layer="layer3" />
  <g
     inkscape:groupmode="layer"
     id="layer2"
     inkscape:label="Icons"
     style="display:inline"
     transform="translate(-0.72091913,-1.178122)">
    <path
       inkscape:connector-curvature="0"
       style="fill:#0078d7;stroke-width:0.96586472"
       d="m 147.04029,54.699185 c 0,1.487431 0.22215,2.839642 0.6761,4.056628 0.48294,1.197672 1.11075,2.269783 1.91242,3.206672 0.80166,0.936887 1.73855,1.738555 2.83964,2.414662 1.06245,0.676104 2.22149,1.236307 3.4578,1.670945 1.22664,0.444297 2.51124,0.772692 3.81516,0.985182 1.32323,0.212491 2.60784,0.318737 3.91175,0.318737 1.64197,0 3.16803,-0.125573 4.61684,-0.386347 1.44879,-0.270442 2.85896,-0.627813 4.24979,-1.08177 1.39085,-0.453956 2.73341,-0.994839 4.07596,-1.612993 1.35221,-0.618155 2.72374,-1.294259 4.1339,-2.047633 v 13.097125 c -1.57437,0.772693 -3.11974,1.419821 -4.66512,1.980023 -1.54539,0.540885 -3.09077,1.014159 -4.66514,1.390846 -1.57436,0.386346 -3.16803,0.676106 -4.80035,0.849962 -1.6323,0.173854 -3.30325,0.270441 -5.0418,0.270441 -2.31808,0 -4.55889,-0.270441 -6.71276,-0.801668 -2.15388,-0.531224 -4.17254,-1.294259 -6.06564,-2.298758 -1.89309,-1.004499 -3.62199,-2.221489 -5.19635,-3.650967 -1.58402,-1.429482 -2.92657,-3.042476 -4.05663,-4.829326 -1.13006,-1.786849 -1.99934,-3.747555 -2.62715,-5.85314 -0.6085,-2.105586 -0.91757,-4.346389 -0.91757,-6.722416 0,-2.540223 0.34771,-4.954885 1.04313,-7.263303 0.70508,-2.318075 1.69992,-4.423661 3.0135,-6.35539 1.30392,-1.931729 2.89759,-3.650967 4.78103,-5.148059 1.88344,-1.497091 3.99868,-2.723738 6.35539,-3.670286 -1.2846,1.2846 -2.2891,2.801009 -2.99418,4.568541 -0.7244,1.757875 -1.17836,3.525407 -1.38119,5.292938 h 22.0024 c 0,-2.221489 -0.22215,-4.153218 -0.67611,-5.814506 -0.45395,-1.661286 -1.17834,-3.042473 -2.19251,-4.1339 -1.0045,-1.101085 -2.29876,-1.931732 -3.89244,-2.472615 -1.59366,-0.550543 -3.51574,-0.830643 -5.7662,-0.830643 -2.65613,0 -5.31226,0.386346 -7.96839,1.188013 -2.65613,0.772692 -5.17703,1.883437 -7.57238,3.283941 -2.39534,1.41982 -4.59752,3.090766 -6.60651,5.003179 -2.009,1.931729 -3.69927,4.008339 -5.07079,6.258804 0.28976,-2.607835 0.86927,-5.119083 1.67094,-7.504768 0.80167,-2.385687 1.86412,-4.607176 3.13906,-6.66447 1.27494,-2.028315 2.77204,-3.882774 4.48162,-5.544062 1.70958,-1.661287 3.60267,-3.090767 5.6986,-4.249804 2.09592,-1.159038 4.31741,-2.095927 6.73207,-2.723741 2.41467,-0.550543 4.98387,-0.878936 7.68829,-0.878936 1.58402,0 3.15838,0.144876 4.73273,0.42498 1.57436,0.28976 3.11009,0.676106 4.60718,1.178356 2.97486,1.023817 5.63098,2.453297 7.96838,4.269122 2.3374,1.835144 4.29811,3.921411 5.89178,6.307098 1.59368,2.385685 2.80101,5.022495 3.63166,7.891113 0.83065,2.868619 1.25564,5.853141 1.25564,8.953569 v 7.678624 z"
       id="path133" />
    <path
       inkscape:connector-curvature="0"
       style="display:inline;fill:#1ebbee;stroke-width:0.29644775"
       d="m 81.026072,49.183584 c 0,-5.039611 -1.304371,-9.782775 -3.557374,-13.933043 C 87.251465,13.313408 67.093021,16.574333 65.907235,16.574333 61.756967,17.404388 57.6067,18.738402 54.049325,20.428154 40.412721,20.265108 28.554811,27.5429 24.70099,42.661735 31.815739,34.657645 36.855363,31.396721 39.819828,30.21093 c -0.62254,0.56325 -1.245079,1.156146 -1.867618,1.749041 -4.743161,4.743163 -8.596982,9.486327 -11.85791,14.525939 -2.519803,4.446715 -5.336053,8.300536 -6.818302,13.340148 -8.004088,29.051879 17.193979,16.897521 20.751354,14.822388 3.853821,1.897264 8.004088,2.934832 12.747249,2.934832 12.450802,0 23.122925,-8.004089 26.976746,-18.972655 H 64.63251 C 57.517761,69.875636 40.620245,64.836025 40.027352,52.681668 h 40.909781 c 0.154096,-1.215436 0.237154,-2.430873 0.237154,-3.557373 z M 75.690018,21.02105 c 2.460511,1.660107 4.446714,4.150268 1.037555,13.043701 C 73.466645,28.72869 68.723485,24.578423 62.794538,22.503289 65.432911,21.228563 71.984413,18.649468 75.838234,21.02105 Z M 23.218758,74.67809 C 21.202909,72.6326 20.84717,67.563343 25.2939,58.373464 c 2.223357,6.521851 6.818286,11.857909 12.450802,15.118835 -2.875542,1.571173 -10.375677,5.039611 -14.525944,0.978277 z m 16.60107,-29.644773 c 0.228276,-6.521851 5.928963,-11.857911 13.043711,-11.857911 7.114749,0 12.747249,5.33606 13.043696,11.857911 H 40.116274 Z"
       id="path58" />
  </g>
  <g
     inkscape:groupmode="layer"
     id="layer3"
     inkscape:label="Inhibit"
     transform="translate(-0.72091913,-1.178122)">
    <circle
       style="fill:none;stroke:#ff0000;stroke-width:6.51566601;stroke-miterlimit:4;stroke-dasharray:none;stroke-opacity:1"
       id="path4684"
       cx="50.933983"
       cy="51.391186"
       r="46.955231" />
    <rect
       style="fill:none;stroke:#ff0000;stroke-width:6.51566601;stroke-miterlimit:4;stroke-dasharray:none;stroke-opacity:1"
       id="rect4686"
       width="93.093086"
       height="0.74474466"
       x="25.734001"
       y="-3.8827074"
       transform="rotate(46.78548)" />
    <circle
       style="fill:none;stroke:#ff0000;stroke-width:6.51566601;stroke-miterlimit:4;stroke-dasharray:none;stroke-opacity:1"
       id="path4684-3"
       cx="158.92197"
       cy="51.391186"
       r="46.955231" />
    <rect
       style="fill:none;stroke:#ff0000;stroke-width:6.51566601;stroke-miterlimit:4;stroke-dasharray:none;stroke-opacity:1"
       id="rect4686-6"
       width="93.093086"
       height="0.74474466"
       x="99.676811"
       y="-82.583824"
       transform="rotate(46.78548)" />
  </g>
</svg>
